------------Log start------------
Input #0, matroska,webm, from 'data/65b291c897d5832cdc6983a6/1706201701398/record_out/80c60865-8e20-41ec-9c67-a9ba6ff14f01-audio.webm':
  Metadata:
    encoder         : ebml-go.webm.BlockWriter
    creation_time   : 2024-01-25T16:52:26.665000Z
  Duration: N/A, start: 0.000000, bitrate: N/A
  Stream #0:0(eng): Subtitle: webvtt (default) (metadata)
    Metadata:
      title           : VttAudioDroppedPacketMeta
  Stream #0:1(eng): Audio: opus, 48000 Hz, stereo, fltp (default)
    Metadata:
      title           : Audio
Input #1, png_pipe, from 'data/black-bg.png':
  Duration: N/A, bitrate: N/A
  Stream #1:0: Video: png, rgb24(pc), 1280x720 [SAR 3779:3779 DAR 16:9], 25 fps, 25 tbr, 25 tbn, 25 tbc
Input #2, png_pipe, from 'data/black-bg.png':
  Duration: N/A, bitrate: N/A
  Stream #2:0: Video: png, rgb24(pc), 1280x720 [SAR 3779:3779 DAR 16:9], 25 fps, 25 tbr, 25 tbn, 25 tbc
Input #3, lavfi, from 'anullsrc':
  Duration: N/A, start: 0.000000, bitrate: 705 kb/s
  Stream #3:0: Audio: pcm_u8, 44100 Hz, stereo, u8, 705 kb/s
Stream mapping:
  Stream #0:1 (opus) -> concat:in0:a0
  Stream #1:0 (png) -> scale
  Stream #2:0 (png) -> scale
  Stream #3:0 (pcm_u8) -> concat:in1:a0
  concat -> Stream #0:0 (libx264)
  concat -> Stream #0:1 (aac)
Press [q] to stop, [?] for help
[libx264 @ 0x55a5e93acd00] using SAR=1/1
[libx264 @ 0x55a5e93acd00] using cpu capabilities: MMX2 SSE2Fast SSSE3 SSE4.2 AVX FMA3 BMI2 AVX2
[libx264 @ 0x55a5e93acd00] profile High 4:4:4 Predictive, level 1.3, 4:4:4, 8-bit
[libx264 @ 0x55a5e93acd00] 264 - core 164 r3095 baee400 - H.264/MPEG-4 AVC codec - Copyleft 2003-2022 - http://www.videolan.org/x264.html - options: cabac=0 ref=1 deblock=0:0:0 analyse=0:0 me=dia subme=0 psy=1 psy_rd=1.00:0.00 mixed_ref=0 me_range=16 chroma_me=1 trellis=0 8x8dct=0 cqm=0 deadzone=21,11 fast_pskip=1 chroma_qp_offset=6 threads=6 lookahead_threads=1 sliced_threads=0 nr=0 decimate=1 interlaced=0 bluray_compat=0 constrained_intra=0 bframes=0 weightp=0 keyint=250 keyint_min=25 scenecut=0 intra_refresh=0 rc=crf mbtree=0 crf=23.0 qcomp=0.60 qpmin=0 qpmax=69 qpstep=4 ip_ratio=1.40 aq=0
Output #0, mp4, to 'data/65b291c897d5832cdc6983a6/1706201701398/record_out/01c1a8db-62c4-49fb-b936-137609913a4f.mp4':
  Metadata:
    encoder         : Lavf58.76.100
  Stream #0:0: Video: h264 (avc1 / 0x31637661), yuv444p(tv, progressive), 320x180 [SAR 1:1 DAR 16:9], q=2-31, 30 fps, 15360 tbn (default)
    Metadata:
      encoder         : Lavc58.134.100 libx264
    Side data:
      cpb: bitrate max/min/avg: 0/0/0 buffer size: 0 vbv_delay: N/A
  Stream #0:1: Audio: aac (LC) (mp4a / 0x6134706D), 48000 Hz, stereo, fltp, 128 kb/s (default)
    Metadata:
      encoder         : Lavc58.134.100 aac
frame=    1 fps=0.0 q=0.0 size=       0kB time=00:00:00.00 bitrate=N/A speed=   0x    frame=  138 fps=0.0 q=12.0 size=       0kB time=00:00:04.34 bitrate=   0.1kbits/s dup=23 drop=0 speed=7.89x    frame=  281 fps=267 q=12.0 size=       0kB time=00:00:09.25 bitrate=   0.0kbits/s dup=47 drop=0 speed= 8.8x    frame=  420 fps=270 q=12.0 size=       0kB time=00:00:13.74 bitrate=   0.0kbits/s dup=70 drop=0 speed=8.84x    frame=  575 fps=279 q=12.0 size=       0kB time=00:00:18.90 bitrate=   0.0kbits/s dup=96 drop=0 speed=9.18x    [mp4 @ 0x55a5e93ab380] Starting second pass: moving the moov atom to the beginning of the file
frame=  630 fps=278 q=-1.0 Lsize=      99kB time=00:00:21.31 bitrate=  37.9kbits/s dup=105 drop=0 speed=9.41x    
video:17kB audio:72kB subtitle:0kB other streams:0kB global headers:0kB muxing overhead: 10.905117%
[libx264 @ 0x55a5e93acd00] frame I:3     Avg QP:12.67  size:  2933
[libx264 @ 0x55a5e93acd00] frame P:627   Avg QP:12.01  size:    13
[libx264 @ 0x55a5e93acd00] mb I  I16..4: 100.0%  0.0%  0.0%
[libx264 @ 0x55a5e93acd00] mb P  I16..4:  0.1%  0.0%  0.0%  P16..4:  0.0%  0.0%  0.0%  0.0%  0.0%    skip:99.9%
[libx264 @ 0x55a5e93acd00] coded y,u,v intra: 4.4% 0.0% 0.0% inter: 0.0% 0.0% 0.0%
[libx264 @ 0x55a5e93acd00] i16 v,h,dc,p: 91%  4%  5%  0%
[libx264 @ 0x55a5e93acd00] kb/s:6.40
[aac @ 0x55a5e939f840] Qavg: 55869.215
Input #0, matroska,webm, from 'data/65b291c897d5832cdc6983a6/1706201701398/record_out/9c10bfc1-5237-437e-a309-c72209d0c9ba-audio.webm':
  Metadata:
    encoder         : ebml-go.webm.BlockWriter
    creation_time   : 2024-01-25T16:52:28.045000Z
  Duration: N/A, start: 0.000000, bitrate: N/A
  Stream #0:0(eng): Subtitle: webvtt (default) (metadata)
    Metadata:
      title           : VttAudioDroppedPacketMeta
  Stream #0:1(eng): Audio: opus, 48000 Hz, stereo, fltp (default)
    Metadata:
      title           : Audio
Input #1, png_pipe, from 'data/black-bg.png':
  Duration: N/A, bitrate: N/A
  Stream #1:0: Video: png, rgb24(pc), 1280x720 [SAR 3779:3779 DAR 16:9], 25 fps, 25 tbr, 25 tbn, 25 tbc
Input #2, png_pipe, from 'data/black-bg.png':
  Duration: N/A, bitrate: N/A
  Stream #2:0: Video: png, rgb24(pc), 1280x720 [SAR 3779:3779 DAR 16:9], 25 fps, 25 tbr, 25 tbn, 25 tbc
Input #3, lavfi, from 'anullsrc':
  Duration: N/A, start: 0.000000, bitrate: 705 kb/s
  Stream #3:0: Audio: pcm_u8, 44100 Hz, stereo, u8, 705 kb/s
Stream mapping:
  Stream #0:1 (opus) -> concat:in0:a0
  Stream #1:0 (png) -> scale
  Stream #2:0 (png) -> scale
  Stream #3:0 (pcm_u8) -> concat:in1:a0
  concat -> Stream #0:0 (libx264)
  concat -> Stream #0:1 (aac)
Press [q] to stop, [?] for help
[libx264 @ 0x5616759f90c0] using SAR=1/1
[libx264 @ 0x5616759f90c0] using cpu capabilities: MMX2 SSE2Fast SSSE3 SSE4.2 AVX FMA3 BMI2 AVX2
[libx264 @ 0x5616759f90c0] profile High 4:4:4 Predictive, level 1.3, 4:4:4, 8-bit
[libx264 @ 0x5616759f90c0] 264 - core 164 r3095 baee400 - H.264/MPEG-4 AVC codec - Copyleft 2003-2022 - http://www.videolan.org/x264.html - options: cabac=0 ref=1 deblock=0:0:0 analyse=0:0 me=dia subme=0 psy=1 psy_rd=1.00:0.00 mixed_ref=0 me_range=16 chroma_me=1 trellis=0 8x8dct=0 cqm=0 deadzone=21,11 fast_pskip=1 chroma_qp_offset=6 threads=6 lookahead_threads=1 sliced_threads=0 nr=0 decimate=1 interlaced=0 bluray_compat=0 constrained_intra=0 bframes=0 weightp=0 keyint=250 keyint_min=25 scenecut=0 intra_refresh=0 rc=crf mbtree=0 crf=23.0 qcomp=0.60 qpmin=0 qpmax=69 qpstep=4 ip_ratio=1.40 aq=0
Output #0, mp4, to 'data/65b291c897d5832cdc6983a6/1706201701398/record_out/b43c94db-8542-4e80-89a3-c2fefc89cf18.mp4':
  Metadata:
    encoder         : Lavf58.76.100
  Stream #0:0: Video: h264 (avc1 / 0x31637661), yuv444p(tv, progressive), 320x180 [SAR 1:1 DAR 16:9], q=2-31, 30 fps, 15360 tbn (default)
    Metadata:
      encoder         : Lavc58.134.100 libx264
    Side data:
      cpb: bitrate max/min/avg: 0/0/0 buffer size: 0 vbv_delay: N/A
  Stream #0:1: Audio: aac (LC) (mp4a / 0x6134706D), 48000 Hz, stereo, fltp, 128 kb/s (default)
    Metadata:
      encoder         : Lavc58.134.100 aac
frame=    1 fps=0.0 q=0.0 size=       0kB time=00:00:00.00 bitrate=N/A speed=   0x    frame=   91 fps=0.0 q=12.0 size=       0kB time=00:00:02.92 bitrate=   0.1kbits/s dup=15 drop=0 speed=5.23x    frame=  227 fps=214 q=12.0 size=       0kB time=00:00:07.30 bitrate=   0.1kbits/s dup=38 drop=0 speed=6.89x    frame=  362 fps=232 q=12.0 size=       0kB time=00:00:12.00 bitrate=   0.0kbits/s dup=60 drop=0 speed=7.69x    frame=  504 fps=244 q=13.0 size=       0kB time=00:00:16.53 bitrate=   0.0kbits/s dup=84 drop=0 speed=8.02x    [mp4 @ 0x561675a05000] Starting second pass: moving the moov atom to the beginning of the file
frame=  570 fps=250 q=-1.0 Lsize=     119kB time=00:00:18.96 bitrate=  51.2kbits/s dup=95 drop=0 speed=8.32x    
video:17kB audio:91kB subtitle:0kB other streams:0kB global headers:0kB muxing overhead: 10.187412%
[libx264 @ 0x5616759f90c0] frame I:3     Avg QP:12.67  size:  3005
[libx264 @ 0x5616759f90c0] frame P:567   Avg QP:12.02  size:    13
[libx264 @ 0x5616759f90c0] mb I  I16..4: 100.0%  0.0%  0.0%
[libx264 @ 0x5616759f90c0] mb P  I16..4:  0.1%  0.0%  0.0%  P16..4:  0.0%  0.0%  0.0%  0.0%  0.0%    skip:99.9%
[libx264 @ 0x5616759f90c0] coded y,u,v intra: 4.8% 0.0% 0.0% inter: 0.0% 0.0% 0.0%
[libx264 @ 0x5616759f90c0] i16 v,h,dc,p: 88%  8%  4%  0%
[libx264 @ 0x5616759f90c0] kb/s:6.87
[aac @ 0x5616759f9fc0] Qavg: 63834.434
ffmpeg version 4.4 Copyright (c) 2000-2021 the FFmpeg developers
  built with gcc 12 (Debian 12.2.0-14)
  configuration: --enable-nonfree --enable-gpl --enable-libx264 --enable-libfontconfig --enable-libfreetype --enable-libvpx --enable-libopus
  libavutil      56. 70.100 / 56. 70.100
  libavcodec     58.134.100 / 58.134.100
  libavformat    58. 76.100 / 58. 76.100
  libavdevice    58. 13.100 / 58. 13.100
  libavfilter     7.110.100 /  7.110.100
  libswscale      5.  9.100 /  5.  9.100
  libswresample   3.  9.100 /  3.  9.100
  libpostproc    55.  9.100 / 55.  9.100
Input #0, png_pipe, from 'data/black-bg.png':
  Duration: N/A, bitrate: N/A
  Stream #0:0: Video: png, rgb24(pc), 1280x720 [SAR 3779:3779 DAR 16:9], 25 fps, 25 tbr, 25 tbn, 25 tbc
Input #1, png_pipe, from 'data/black-bg.png':
  Duration: N/A, bitrate: N/A
  Stream #1:0: Video: png, rgb24(pc), 1280x720 [SAR 3779:3779 DAR 16:9], 25 fps, 25 tbr, 25 tbn, 25 tbc
Stream mapping:
  Stream #0:0 (png) -> scale
  Stream #0:0 (png) -> scale
  overlay -> Stream #0:0 (libx264)
Press [q] to stop, [?] for help
[libx264 @ 0x563fff8dba00] using SAR=1/1
[libx264 @ 0x563fff8dba00] using cpu capabilities: MMX2 SSE2Fast SSSE3 SSE4.2 AVX FMA3 BMI2 AVX2
[libx264 @ 0x563fff8dba00] profile High, level 3.1, 4:2:0, 8-bit
[libx264 @ 0x563fff8dba00] 264 - core 164 r3095 baee400 - H.264/MPEG-4 AVC codec - Copyleft 2003-2022 - http://www.videolan.org/x264.html - options: cabac=1 ref=3 deblock=1:0:0 analyse=0x3:0x113 me=hex subme=7 psy=1 psy_rd=1.00:0.00 mixed_ref=1 me_range=16 chroma_me=1 trellis=1 8x8dct=1 cqm=0 deadzone=21,11 fast_pskip=1 chroma_qp_offset=-2 threads=22 lookahead_threads=3 sliced_threads=0 nr=0 decimate=1 interlaced=0 bluray_compat=0 constrained_intra=0 bframes=3 b_pyramid=2 b_adapt=1 b_bias=0 direct=1 weightb=1 open_gop=0 weightp=2 keyint=250 keyint_min=25 scenecut=40 intra_refresh=0 rc_lookahead=40 rc=crf mbtree=1 crf=23.0 qcomp=0.60 qpmin=0 qpmax=69 qpstep=4 ip_ratio=1.40 aq=1:1.00
Output #0, mp4, to 'data/65b291c897d5832cdc6983a6/1706201701398/record_out/init_file.mp4':
  Metadata:
    encoder         : Lavf58.76.100
  Stream #0:0: Video: h264 (avc1 / 0x31637661), yuv420p(tv, progressive), 1280x720 [SAR 1:1 DAR 16:9], q=2-31, 25 fps, 12800 tbn (default)
    Metadata:
      encoder         : Lavc58.134.100 libx264
    Side data:
      cpb: bitrate max/min/avg: 0/0/0 buffer size: 0 vbv_delay: N/A
frame=    1 fps=0.0 q=0.0 size=       0kB time=00:00:00.00 bitrate=N/A speed=   0x    frame=   25 fps=0.0 q=-1.0 Lsize=       3kB time=00:00:00.88 bitrate=  27.5kbits/s speed=2.84x    
video:2kB audio:0kB subtitle:0kB other streams:0kB global headers:0kB muxing overhead: 63.621620%
[libx264 @ 0x563fff8dba00] frame I:1     Avg QP: 9.00  size:   215
[libx264 @ 0x563fff8dba00] frame P:6     Avg QP:10.17  size:    45
[libx264 @ 0x563fff8dba00] frame B:18    Avg QP:12.67  size:    38
[libx264 @ 0x563fff8dba00] consecutive B-frames:  4.0%  0.0%  0.0% 96.0%
[libx264 @ 0x563fff8dba00] mb I  I16..4: 100.0%  0.0%  0.0%
[libx264 @ 0x563fff8dba00] mb P  I16..4:  0.0%  0.0%  0.0%  P16..4:  0.0%  0.0%  0.0%  0.0%  0.0%    skip:100.0%
[libx264 @ 0x563fff8dba00] mb B  I16..4:  0.0%  0.0%  0.0%  B16..8:  0.0%  0.0%  0.0%  direct: 0.0%  skip:100.0%
[libx264 @ 0x563fff8dba00] 8x8 transform intra:0.0%
[libx264 @ 0x563fff8dba00] coded y,uvDC,uvAC intra: 0.0% 0.0% 0.0% inter: 0.0% 0.0% 0.0%
[libx264 @ 0x563fff8dba00] i16 v,h,dc,p: 98%  0%  2%  0%
[libx264 @ 0x563fff8dba00] i8c dc,h,v,p: 100%  0%  0%  0%
[libx264 @ 0x563fff8dba00] Weighted P-Frames: Y:0.0% UV:0.0%
[libx264 @ 0x563fff8dba00] kb/s:9.28
Input #0, mov,mp4,m4a,3gp,3g2,mj2, from 'data/65b291c897d5832cdc6983a6/1706201701398/record_out/init_file.mp4':
  Metadata:
    major_brand     : isom
    minor_version   : 512
    compatible_brands: isomiso2avc1mp41
    encoder         : Lavf58.76.100
  Duration: 00:00:01.00, start: 0.000000, bitrate: 24 kb/s
  Stream #0:0(und): Video: h264 (High) (avc1 / 0x31637661), yuv420p, 1280x720 [SAR 1:1 DAR 16:9], 14 kb/s, 25 fps, 25 tbr, 12800 tbn, 50 tbc (default)
    Metadata:
      handler_name    : VideoHandler
      vendor_id       : [0][0][0][0]
Input #1, mov,mp4,m4a,3gp,3g2,mj2, from 'data/65b291c897d5832cdc6983a6/1706201701398/record_out/01c1a8db-62c4-49fb-b936-137609913a4f.mp4':
  Metadata:
    major_brand     : isom
    minor_version   : 512
    compatible_brands: isomiso2avc1mp41
    encoder         : Lavf58.76.100
  Duration: 00:00:21.34, start: 0.000000, bitrate: 37 kb/s
  Stream #1:0(und): Video: h264 (High 4:4:4 Predictive) (avc1 / 0x31637661), yuv444p, 320x180 [SAR 1:1 DAR 16:9], 6 kb/s, 30 fps, 30 tbr, 15360 tbn, 60 tbc (default)
    Metadata:
      handler_name    : VideoHandler
      vendor_id       : [0][0][0][0]
  Stream #1:1(und): Audio: aac (LC) (mp4a / 0x6134706D), 48000 Hz, stereo, fltp, 27 kb/s (default)
    Metadata:
      handler_name    : SoundHandler
      vendor_id       : [0][0][0][0]
Input #2, mov,mp4,m4a,3gp,3g2,mj2, from 'data/65b291c897d5832cdc6983a6/1706201701398/record_out/b43c94db-8542-4e80-89a3-c2fefc89cf18.mp4':
  Metadata:
    major_brand     : isom
    minor_version   : 512
    compatible_brands: isomiso2avc1mp41
    encoder         : Lavf58.76.100
  Duration: 00:00:19.00, start: 0.000000, bitrate: 51 kb/s
  Stream #2:0(und): Video: h264 (High 4:4:4 Predictive) (avc1 / 0x31637661), yuv444p, 320x180 [SAR 1:1 DAR 16:9], 7 kb/s, 30 fps, 30 tbr, 15360 tbn, 60 tbc (default)
    Metadata:
      handler_name    : VideoHandler
      vendor_id       : [0][0][0][0]
  Stream #2:1(und): Audio: aac (LC) (mp4a / 0x6134706D), 48000 Hz, stereo, fltp, 39 kb/s (default)
    Metadata:
      handler_name    : SoundHandler
      vendor_id       : [0][0][0][0]
Stream mapping:
  Stream #0:0 (h264) -> overlay:main
  Stream #1:0 (h264) -> scale
  Stream #1:1 (aac) -> volume
  Stream #2:0 (h264) -> scale
  Stream #2:1 (aac) -> volume
  amix -> Stream #0:0 (aac)
  overlay -> Stream #0:1 (libx264)
Press [q] to stop, [?] for help
-async is forwarded to lavfi similarly to -af aresample=async=1:min_hard_comp=0.100000:first_pts=0.
    Last message repeated 1 times
[libx264 @ 0x55a462975840] using SAR=1/1
[libx264 @ 0x55a462975840] using cpu capabilities: MMX2 SSE2Fast SSSE3 SSE4.2 AVX FMA3 BMI2 AVX2
[libx264 @ 0x55a462975840] profile High, level 3.1, 4:2:0, 8-bit
[libx264 @ 0x55a462975840] 264 - core 164 r3095 baee400 - H.264/MPEG-4 AVC codec - Copyleft 2003-2022 - http://www.videolan.org/x264.html - options: cabac=1 ref=3 deblock=1:0:0 analyse=0x3:0x113 me=hex subme=7 psy=1 psy_rd=1.00:0.00 mixed_ref=1 me_range=16 chroma_me=1 trellis=1 8x8dct=1 cqm=0 deadzone=21,11 fast_pskip=1 chroma_qp_offset=-2 threads=22 lookahead_threads=3 sliced_threads=0 nr=0 decimate=1 interlaced=0 bluray_compat=0 constrained_intra=0 bframes=3 b_pyramid=2 b_adapt=1 b_bias=0 direct=1 weightb=1 open_gop=0 weightp=2 keyint=250 keyint_min=25 scenecut=40 intra_refresh=0 rc_lookahead=40 rc=crf mbtree=1 crf=22.0 qcomp=0.60 qpmin=0 qpmax=69 qpstep=4 ip_ratio=1.40 aq=1:1.00
Output #0, mp4, to 'data/65b291c897d5832cdc6983a6/1706201701398/record_out/Rec-65b291c897d5832cdc6983a6-1706201546665.mp4':
  Metadata:
    major_brand     : isom
    minor_version   : 512
    compatible_brands: isomiso2avc1mp41
    encoder         : Lavf58.76.100
  Stream #0:0: Audio: aac (LC) (mp4a / 0x6134706D), 48000 Hz, stereo, fltp, 128 kb/s (default)
    Metadata:
      encoder         : Lavc58.134.100 aac
  Stream #0:1: Video: h264 (avc1 / 0x31637661), yuv420p(progressive), 1280x720 [SAR 1:1 DAR 16:9], q=2-31, 25 fps, 12800 tbn (default)
    Metadata:
      encoder         : Lavc58.134.100 libx264
    Side data:
      cpb: bitrate max/min/avg: 0/0/0 buffer size: 0 vbv_delay: N/A
frame=    1 fps=0.0 q=0.0 size=       0kB time=00:00:00.44 bitrate=   0.9kbits/s speed=14.8x    frame=   74 fps=0.0 q=27.0 size=       0kB time=00:00:03.34 bitrate=   0.1kbits/s dup=0 drop=9 speed=6.26x    frame=  148 fps=143 q=27.0 size=       0kB time=00:00:05.73 bitrate=   0.1kbits/s dup=0 drop=23 speed=5.54x    frame=  231 fps=150 q=27.0 size=       0kB time=00:00:09.21 bitrate=   0.0kbits/s dup=0 drop=40 speed=   6x    frame=  317 fps=156 q=27.0 size=       0kB time=00:00:12.56 bitrate=   0.0kbits/s dup=0 drop=57 speed=6.17x    frame=  397 fps=156 q=27.0 size=       0kB time=00:00:15.82 bitrate=   0.0kbits/s dup=0 drop=73 speed=6.24x    frame=  480 fps=158 q=27.0 size=       0kB time=00:00:19.49 bitrate=   0.0kbits/s dup=0 drop=90 speed=6.42x    [mp4 @ 0x55a46298fd80] Starting second pass: moving the moov atom to the beginning of the file
frame=  527 fps=158 q=-1.0 Lsize=     196kB time=00:00:20.99 bitrate=  76.6kbits/s dup=0 drop=99 speed=6.28x    
video:39kB audio:140kB subtitle:0kB other streams:0kB global headers:0kB muxing overhead: 9.535796%
[aac @ 0x55a4629671c0] Qavg: 60544.988
[libx264 @ 0x55a462975840] frame I:3     Avg QP: 6.33  size:  4564
[libx264 @ 0x55a462975840] frame P:133   Avg QP: 8.34  size:    73
[libx264 @ 0x55a462975840] frame B:391   Avg QP:11.67  size:    40
[libx264 @ 0x55a462975840] consecutive B-frames:  0.9%  0.4%  0.0% 98.7%
[libx264 @ 0x55a462975840] mb I  I16..4: 98.0%  0.1%  1.9%
[libx264 @ 0x55a462975840] mb P  I16..4:  0.0%  0.0%  0.0%  P16..4:  0.0%  0.0%  0.0%  0.0%  0.0%    skip:100.0%
[libx264 @ 0x55a462975840] mb B  I16..4:  0.0%  0.0%  0.0%  B16..8:  0.0%  0.0%  0.0%  direct: 0.0%  skip:99.9%  L0:54.8% L1:45.2% BI: 0.0%
[libx264 @ 0x55a462975840] 8x8 transform intra:0.6% inter:48.3%
[libx264 @ 0x55a462975840] coded y,uvDC,uvAC intra: 2.5% 0.0% 0.0% inter: 0.0% 0.0% 0.0%
[libx264 @ 0x55a462975840] i16 v,h,dc,p: 97%  0%  2%  0%
[libx264 @ 0x55a462975840] i8 v,h,dc,ddl,ddr,vr,hd,vl,hu:  3%  7% 83%  1%  1%  1%  2%  2%  1%
[libx264 @ 0x55a462975840] i4 v,h,dc,ddl,ddr,vr,hd,vl,hu: 21% 25% 19%  3%  6%  8%  6%  6%  6%
[libx264 @ 0x55a462975840] i8c dc,h,v,p: 100%  0%  0%  0%
[libx264 @ 0x55a462975840] Weighted P-Frames: Y:0.8% UV:0.0%
[libx264 @ 0x55a462975840] ref P L0: 93.9%  2.1%  1.4%  2.5%
[libx264 @ 0x55a462975840] ref B L0: 38.6% 61.4%
[libx264 @ 0x55a462975840] kb/s:14.84
